<svg width="24" height="24" viewBox="0 0 24 24" fill="none" xmlns="http://www.w3.org/2000/svg">
<path d="M10.3388 10.3306C11.3976 10.8783 12.639 10.8783 13.6613 10.3306L19.3935 7.40974L20.7079 6.75254C20.2333 5.73022 19.1745 5 17.9331 5H6.10346C4.89859 5 3.83977 5.73022 3.32861 6.75254L4.64302 7.40974L10.3388 10.3306Z" fill="url(#paint0_linear_50_123)"/>
<path d="M14.355 11.645C13.6247 12.0102 12.8215 12.1927 12.0183 12.1927C11.215 12.1927 10.4118 12.0102 9.68154 11.645L4.46045 8.97973L3 8.24951V15.1866C3 16.8661 4.38742 18.2536 6.06694 18.2536H17.9331C19.6126 18.2536 21 16.8661 21 15.1866V8.24951L19.5396 8.97973L14.355 11.645Z" fill="url(#paint1_linear_50_123)"/>
<defs>
<linearGradient id="paint0_linear_50_123" x1="12.0183" y1="5" x2="12.0183" y2="10.7414" gradientUnits="userSpaceOnUse">
<stop stop-color="#FD0F40"/>
<stop offset="1" stop-color="#FE7390"/>
</linearGradient>
<linearGradient id="paint1_linear_50_123" x1="12" y1="8.24951" x2="12" y2="18.2536" gradientUnits="userSpaceOnUse">
<stop stop-color="#FD0F40"/>
<stop offset="1" stop-color="#FE7390"/>
</linearGradient>
</defs>
</svg>
