<svg width="24" height="24" viewBox="0 0 24 24" fill="none" xmlns="http://www.w3.org/2000/svg">
<path d="M6.97498 19.425L7.31249 19.6125C8.69999 20.475 10.3125 21 12 21C16.9125 21 21 16.9125 21 11.925C21 6.93747 16.9125 3 11.9625 3C7.01249 3 3 6.97498 3 11.925C3 13.65 3.48751 15.3375 4.3875 16.7625L4.61252 17.1L3.75004 20.25L6.97498 19.425Z" fill="#55CD6C"/>
<path d="M9.075 6.90006L8.36252 6.86255C8.1375 6.86255 7.91253 6.93757 7.76253 7.08757C7.42502 7.38756 6.86254 7.95005 6.71254 8.70008C6.45005 9.82509 6.86254 11.1751 7.83755 12.5251C8.81256 13.8751 10.6876 16.0501 13.9875 16.9876C15.0375 17.2876 15.8625 17.1 16.5376 16.6876C17.0626 16.3501 17.4 15.8251 17.5126 15.2626L17.6251 14.7375C17.6626 14.5875 17.5875 14.4 17.4375 14.3251L15.075 13.2376C14.925 13.1625 14.7375 13.2 14.625 13.35L13.6875 14.55C13.6125 14.625 13.5 14.6625 13.3875 14.625C12.75 14.4 10.6125 13.5 9.45002 11.2501C9.41251 11.1376 9.41251 11.025 9.48753 10.9501L10.3875 9.93758C10.4625 9.8251 10.5 9.6751 10.4625 9.56257L9.37504 7.12508C9.33749 7.01255 9.225 6.90006 9.075 6.90006Z" fill="white"/>
</svg>
